<svg xmlns="http://www.w3.org/2000/svg" xmlns:xlink="http://www.w3.org/1999/xlink" viewBox="0 0 48 48"><line x1="42.5" x2="42.5" y1="22.5" y2="22.5" fill="none" stroke="#535659" stroke-linecap="round" stroke-linejoin="round"/><path fill="none" stroke="#535659" stroke-dasharray="0,.9755" stroke-linecap="round" stroke-linejoin="round" d="M42.915,23.379 c0.275,0.731,0.585,1.913,0.585,3.522c0,4.167-2.774,9.047-2.987,13.116"/><line x1="40.5" x2="40.5" y1="40.5" y2="40.5" fill="none" stroke="#535659" stroke-linecap="round" stroke-linejoin="round"/><radialGradient id="DS1GJoQ~q9W94JLlgjd4Ya" cx="704" cy="24" r="18" fx="703.905" fy="16.289" gradientTransform="matrix(-1 0 0 1 728 0)" gradientUnits="userSpaceOnUse"><stop offset="0" stop-color="#ffe16e"/><stop offset=".629" stop-color="#ffd226"/><stop offset=".75" stop-color="#fdcd23"/><stop offset=".899" stop-color="#f6bd1b"/><stop offset=".999" stop-color="#f0af13"/></radialGradient><circle cx="24" cy="24" r="18" fill="url(#DS1GJoQ~q9W94JLlgjd4Ya)"/><path fill="#805b2a" d="M36.165,14.871c-0.534-0.388-1.204-0.729-1.858-0.95c-0.663-0.226-1.352-0.34-2.027-0.338 c-0.674,0.003-1.341,0.1-1.965,0.34c-0.633,0.204-1.212,0.564-1.771,0.935l-0.055,0.036c-0.469,0.311-1.101,0.183-1.412-0.286 c-0.311-0.469-0.183-1.101,0.286-1.412c0.03-0.02,0.062-0.038,0.093-0.055c0.754-0.392,1.532-0.751,2.379-0.926 c0.831-0.21,1.707-0.241,2.547-0.145c0.842,0.095,1.656,0.334,2.401,0.686c0.75,0.361,1.416,0.787,2.053,1.372 c0.203,0.186,0.216,0.502,0.03,0.705c-0.173,0.189-0.458,0.213-0.66,0.066L36.165,14.871z"/><radialGradient id="DS1GJoQ~q9W94JLlgjd4Yb" cx="-158.92" cy="10.274" r="4.678" gradientTransform="matrix(.0157 1.116 -1.0932 .0402 38.276 208.296)" gradientUnits="userSpaceOnUse"><stop offset=".629" stop-color="#ffe16e"/><stop offset=".871" stop-color="#ffe16e" stop-opacity="0"/></radialGradient><path fill="url(#DS1GJoQ~q9W94JLlgjd4Yb)" d="M17.395,31.863c0,0,1.605,3.137,6.604,3.137c3.44,0,5.343-1.016,5.343-1.016s-2.219-2.487-6.729-2.511C18.649,31.452,17.395,31.863,17.395,31.863z"/><radialGradient id="DS1GJoQ~q9W94JLlgjd4Yc" cx="1362.952" cy="-797.601" r="12.476" gradientTransform="matrix(-.618 0 0 -.4285 867.052 -312.148)" gradientUnits="userSpaceOnUse"><stop offset=".633" stop-color="#cc9000"/><stop offset="1" stop-color="#cc9000" stop-opacity="0"/></radialGradient><path fill="url(#DS1GJoQ~q9W94JLlgjd4Yc)" d="M24,33c3.684,0,5.562,1.18,5.562,1.18S27.43,35,24,35c-5,0-7-4-7-4S19,33,24,33z"/><linearGradient id="DS1GJoQ~q9W94JLlgjd4Yd" x1="40.5" x2="40.5" y1="21.034" y2="22.97" gradientUnits="userSpaceOnUse"><stop offset="0" stop-color="#3c3e40"/><stop offset=".437" stop-color="#787b80"/><stop offset="1" stop-color="#3c3e40"/></linearGradient><path fill="url(#DS1GJoQ~q9W94JLlgjd4Yd)" d="M42,23h-4v-2h4c0.552,0,1,0.448,1,1v0C43,22.552,42.552,23,42,23z"/><radialGradient id="DS1GJoQ~q9W94JLlgjd4Ye" cx="31" cy="22" r="7" gradientUnits="userSpaceOnUse"><stop offset=".874" stop-color="#3c3e40"/><stop offset=".932" stop-color="#535659"/><stop offset="1" stop-color="#3c3e40"/></radialGradient><path fill="url(#DS1GJoQ~q9W94JLlgjd4Ye)" d="M31,15c-3.866,0-7,3.134-7,7c0,3.866,3.134,7,7,7s7-3.134,7-7C38,18.134,34.866,15,31,15z M31,28c-3.314,0-6-2.686-6-6s2.686-6,6-6s6,2.686,6,6S34.314,28,31,28z"/><radialGradient id="DS1GJoQ~q9W94JLlgjd4Yf" cx="41.016" cy="41.587" r="1.365" gradientUnits="userSpaceOnUse"><stop offset="0" stop-color="#b9c0c7"/><stop offset=".325" stop-color="#8c9196"/><stop offset=".401" stop-color="#84898e"/><stop offset=".52" stop-color="#707477"/><stop offset=".666" stop-color="#4e5153"/><stop offset=".734" stop-color="#3c3e40"/><stop offset=".822" stop-color="#424547"/><stop offset=".937" stop-color="#525558"/></radialGradient><circle cx="41" cy="42" r="1" fill="url(#DS1GJoQ~q9W94JLlgjd4Yf)"/><radialGradient id="DS1GJoQ~q9W94JLlgjd4Yg" cx="23.764" cy="32.069" r="5.023" gradientUnits="userSpaceOnUse"><stop offset="0" stop-color="#1c1911"/><stop offset=".999" stop-color="#171714"/></radialGradient><path fill="url(#DS1GJoQ~q9W94JLlgjd4Yg)" d="M29.127,33.861c-0.754-0.514-1.641-0.967-2.525-1.314c-0.89-0.355-1.814-0.616-2.747-0.777 c-0.932-0.167-1.876-0.243-2.811-0.194c-0.937,0.014-1.857,0.197-2.759,0.402l-0.057,0.013c-0.539,0.123-1.076-0.215-1.198-0.755 s0.215-1.076,0.755-1.198c0.024-0.005,0.05-0.01,0.074-0.014c1.06-0.158,2.127-0.275,3.193-0.209 c1.064,0.032,2.117,0.202,3.134,0.469c1.019,0.262,2.005,0.629,2.939,1.091c0.941,0.465,1.812,0.99,2.658,1.673 c0.224,0.181,0.259,0.509,0.078,0.733c-0.172,0.212-0.476,0.255-0.698,0.104L29.127,33.861z"/><circle cx="17" cy="22" r="4" fill="#fff"/><circle cx="17" cy="22" r="2" fill="#212121"/><circle cx="31" cy="22" r="4" fill="#fff"/><circle cx="31" cy="22" r="2" fill="#212121"/><g><path fill="#805b2a" d="M11.645,17.022c0.732,0.161,1.522,0.273,2.292,0.346c0.775,0.074,1.553,0.112,2.328,0.107 c1.55,0.002,3.088-0.164,4.574-0.478l0.009-0.002c0.55-0.116,1.09,0.236,1.206,0.786c0.116,0.55-0.236,1.09-0.786,1.206 c-0.036,0.008-0.072,0.013-0.108,0.017c-1.67,0.169-3.338,0.164-4.977-0.015c-0.82-0.084-1.632-0.212-2.435-0.378 c-0.808-0.167-1.588-0.361-2.394-0.633c-0.262-0.088-0.402-0.372-0.314-0.633c0.082-0.244,0.333-0.382,0.579-0.329L11.645,17.022z"/></g><radialGradient id="DS1GJoQ~q9W94JLlgjd4Yh" cx="31" cy="17.193" r="10.753" gradientUnits="userSpaceOnUse"><stop offset=".289" stop-color="#fff" stop-opacity=".7"/><stop offset="1" stop-color="#fff" stop-opacity=".1"/></radialGradient><circle cx="31" cy="22.5" r="5.5" fill="url(#DS1GJoQ~q9W94JLlgjd4Yh)"/></svg>